<svg width="199" height="42" viewBox="0 0 199 42" fill="none" xmlns="http://www.w3.org/2000/svg">
<g clip-path="url(#clip0_1118_623)">
<mask id="mask0_1118_623" style="mask-type:luminance" maskUnits="userSpaceOnUse" x="0" y="0" width="199" height="42">
<path d="M198.959 0H0V42H198.959V0Z" fill="white"/>
</mask>
<g mask="url(#mask0_1118_623)">
<path d="M197.596 1.36377H1.36279V40.6365H197.596V1.36377Z" fill="white"/>
<mask id="mask1_1118_623" style="mask-type:luminance" maskUnits="userSpaceOnUse" x="0" y="0" width="199" height="42">
<path d="M198.959 0H0V42H198.959V0Z" fill="white"/>
</mask>
<g mask="url(#mask1_1118_623)">
<path d="M197.596 1.36377H1.36279V40.6365H197.596V1.36377Z" stroke="white" stroke-width="5"/>
</g>
<path d="M197.58 1.36377H40.604V40.6365H197.58V1.36377Z" fill="#231F20"/>
<mask id="mask2_1118_623" style="mask-type:luminance" maskUnits="userSpaceOnUse" x="0" y="0" width="199" height="42">
<path d="M198.959 0H0V42H198.959V0Z" fill="white"/>
</mask>
<g mask="url(#mask2_1118_623)">
<path d="M121.169 28.9145C118.596 28.9145 117.004 28.0418 115.527 26.8855V34.8436H111.074V14.7218H115.527V16.2164C117.037 15.0382 119.108 14.3618 121.169 14.3618C124.369 14.3618 126.925 15.24 128.789 16.8436C130.299 18.1473 131.068 19.7782 131.068 21.6218C131.068 25.92 127.11 28.9145 121.163 28.9145M125.077 18.5836C124.069 17.6455 122.75 17.1655 120.924 17.1655C117.593 17.1655 115.527 18.9164 115.527 21.4909C115.527 22.6418 115.985 23.6727 116.797 24.4255C117.811 25.3636 119.097 25.8436 120.924 25.8436C122.75 25.8436 124.069 25.3582 125.077 24.4255C125.895 23.6727 126.32 22.6364 126.32 21.4909C126.32 20.3673 125.895 19.3418 125.077 18.5836Z" fill="white"/>
<path d="M150.119 12.5455C149.16 12.5455 148.277 12.2837 147.699 11.7982C147.219 11.4491 146.963 10.9909 146.963 10.5273C146.963 10.0637 147.214 9.61094 147.699 9.23458C148.282 8.7764 149.16 8.4873 150.075 8.4873C150.991 8.4873 151.901 8.78185 152.496 9.23458C152.97 9.61094 153.226 10.0691 153.226 10.5273C153.226 11.6509 151.836 12.5455 150.124 12.5455M152.528 28.6418H147.65V14.7218H152.528V28.6418Z" fill="white"/>
<path d="M162.966 29.1164C159.123 29.1164 156.916 28.38 154.937 26.6182L154.67 26.3673L155.013 26.1818L158.022 24.5782L158.208 24.4582L158.398 24.6109C159.658 25.4073 160.797 26.1491 162.966 26.1491C164.525 26.1491 165.648 25.8109 166.259 25.3146C166.493 25.1291 166.607 24.9437 166.607 24.6982C166.607 23.5582 164.334 23.2146 162.699 22.9691L162.127 22.9091C158.742 22.4182 155.226 21.5837 155.226 18.7418C155.226 17.76 155.684 16.8928 156.556 16.1509C158 15.0109 160.835 14.2964 163.729 14.2964C167.038 14.2964 169.475 15.1637 170.843 16.6418L171.077 16.8928L167.687 18.5564L167.463 18.6764L167.272 18.5291C166.204 17.6946 165.141 17.2582 163.5 17.2582C161.947 17.2582 160.633 17.6891 160.633 18.4964C160.633 19.7018 162.972 20.0073 164.683 20.2255C164.95 20.2855 165.217 20.2855 165.408 20.3509C168.717 20.8418 172.004 21.7418 172.004 24.5837C172.004 27.9164 167.044 29.1218 162.972 29.1218" fill="white"/>
<path d="M53.773 28.5219V20.4492C53.773 19.4783 53.446 18.7528 52.8028 18.2019C51.9034 17.4492 50.5733 17.2964 49.6031 17.2964C46.3761 17.2964 45.444 18.8074 45.444 21.4419V28.5274H40.5981V14.7219H45.444V16.2928C46.7359 15.1146 48.5347 14.3564 51.1511 14.3564C53.5877 14.3564 55.6754 14.9892 56.9618 16.0801C58.0738 17.0183 58.6134 18.2292 58.6134 19.7128V28.5219H53.7676" fill="white"/>
<path d="M59.8624 17.5094V14.6403H63.0566V10.8931H67.9188V14.6403H73.0264V17.5094H67.9188V23.864C67.9188 25.2167 68.4966 26.0567 70.6661 26.0567C71.5274 26.0567 72.4104 25.9422 73.0209 25.6367V28.4785C71.9961 28.8167 70.5843 28.9312 69.4342 28.9312C64.2231 28.9312 63.0512 27.3276 63.0512 24.1476V17.5149H59.8569L59.8624 17.5094Z" fill="white"/>
<path d="M89.4497 24.5891C87.9235 25.5 86.8987 25.86 84.9146 25.9037C82.6034 25.9582 80.5102 25.2928 79.3928 24.2018C78.9622 23.7764 78.7005 23.2909 78.597 22.8055H93.6742C94.4646 22.7891 94.8734 22.4673 94.8734 21.4855C94.8462 19.8273 94.0939 18.0873 92.7912 16.8164C91.0632 15.1091 87.9126 14.0728 84.4458 14.0728C80.979 14.0728 77.7357 15.2891 75.8224 17.1764C74.5633 18.4255 73.8765 19.9146 73.8765 21.5237C73.8765 23.1328 74.5633 24.7528 75.8224 25.9909C77.6976 27.8182 80.9191 28.9309 84.5712 28.9309C86.1792 28.9309 88.1579 28.7182 89.6787 28.1837C90.3655 27.9491 91.0142 27.6491 91.6356 27.2837C92.2624 26.9128 92.8402 26.46 93.3471 25.9309C93.6633 25.6037 93.9413 25.2382 94.1539 24.8346C94.312 24.4964 93.7451 24.5782 93.3799 24.5728H89.4715L89.4497 24.5837M89.5533 20.0946H78.3244C78.7223 19.0309 80.9518 17.04 84.3749 16.9909C87.8199 16.9473 89.4933 18.3873 90.2129 19.4291C90.529 20.0018 90.0057 20.0891 89.5533 20.0891" fill="white"/>
<path d="M109.068 14.6129C109.068 14.6129 108.147 14.4165 107.242 14.4165C105.061 14.4165 102.832 15.7965 101.611 16.9474V14.782H96.7651V28.582H101.611V21.682C101.611 18.9874 103.372 17.6892 106.926 17.6892C107.389 17.6892 107.961 17.7492 108.681 17.8638L109.068 17.9565V14.6183V14.6129Z" fill="white"/>
<path d="M145.534 14.6129C145.534 14.6129 144.618 14.4165 143.708 14.4165C141.522 14.4165 139.298 15.7965 138.077 16.9474V14.782H133.231V28.582H138.077V21.682C138.077 18.9874 139.838 17.6892 143.392 17.6892C143.85 17.6892 144.428 17.7492 145.147 17.8638L145.534 17.9565V14.6183V14.6129Z" fill="white"/>
<path d="M188.689 24.5891C187.163 25.5 186.138 25.86 184.16 25.9037C181.843 25.9582 179.755 25.2928 178.638 24.2018C178.207 23.7764 177.946 23.2909 177.842 22.8055H192.919C193.71 22.7891 194.119 22.4673 194.119 21.4855C194.091 19.8273 193.339 18.0873 192.036 16.8164C190.308 15.1091 187.158 14.0728 183.691 14.0728C180.224 14.0728 176.981 15.2891 175.068 17.1764C173.808 18.4255 173.122 19.9146 173.122 21.5237C173.122 23.1328 173.808 24.7528 175.068 25.9909C176.937 27.8182 180.164 28.9309 183.816 28.9309C185.424 28.9309 187.403 28.7182 188.924 28.1837C189.611 27.9491 190.259 27.6491 190.886 27.2837C191.513 26.9128 192.091 26.46 192.598 25.9309C192.914 25.6037 193.192 25.2382 193.404 24.8346C193.563 24.4964 192.99 24.5782 192.63 24.5728H188.722L188.7 24.5837M188.804 20.0946H177.575C177.967 19.0309 180.197 17.04 183.625 16.9909C187.07 16.9473 188.744 18.3873 189.463 19.4291C189.78 20.0018 189.256 20.0891 188.804 20.0891" fill="white"/>
<path d="M37.9931 19.7075C37.219 15.873 32.7329 11.9839 25.6522 11.9839H25.6467C19.3945 11.9839 14.8539 15.3003 13.3876 18.7039C13.3549 18.7748 13.235 19.0693 13.1968 19.2003H1.35742V22.6912C7.26077 22.6912 33.7086 22.6912 34.4936 22.6912C36.1288 22.6803 37.3008 22.6475 37.8077 22.0203C38.1566 21.5948 38.2111 20.8803 37.9876 19.7075M32.7438 18.9384C32.6348 19.1566 32.2478 19.1948 31.888 19.2003H18.2444C18.3479 18.9493 18.5278 18.7039 18.5278 18.7039C19.8142 16.8112 22.7959 15.4803 25.7503 15.4748C28.8355 15.4639 31.3375 16.5057 32.6184 18.333C32.7765 18.6166 32.8201 18.8021 32.7493 18.9439" fill="white"/>
<path d="M25.5756 26.2965C22.8066 26.2965 20.1356 25.1565 18.7511 23.4819H13.4746C14.8646 26.8201 19.0673 30.0601 25.6356 30.0547C32.3784 30.0438 35.093 27.6874 36.8591 25.3801C36.9463 25.2601 36.9953 25.1838 37.0607 25.0692H30.8739C29.6529 26.0565 27.3199 26.3019 25.5811 26.3019" fill="white"/>
<path d="M1.35742 1.36377V19.2001H13.1968C13.235 19.0692 13.3549 18.7747 13.3876 18.7038C14.8539 15.3001 19.3945 11.9838 25.6467 11.9838C32.7329 11.9838 37.219 15.8674 37.9876 19.7074C38.2111 20.8801 38.1566 21.5947 37.8077 22.0201C37.3008 22.642 36.1288 22.6747 34.4936 22.691C33.7141 22.691 7.7786 22.691 1.35742 22.691V40.642H40.604V1.36377H1.35742ZM36.8593 25.3747C35.0932 27.682 32.3786 30.0383 25.6358 30.0492C19.0675 30.0547 14.8648 26.8201 13.4748 23.482H18.7513C20.1358 25.1565 22.8068 26.2965 25.5759 26.2965C27.3147 26.2965 29.6477 26.0565 30.8687 25.0638H37.0555C36.9901 25.1783 36.941 25.2547 36.8538 25.3747" fill="#00A664"/>
<path d="M32.749 18.9438C32.8199 18.8074 32.7817 18.6165 32.6182 18.3329C31.3372 16.5056 28.8353 15.4638 25.7501 15.4747C22.7957 15.4801 19.814 16.8165 18.5276 18.7038C18.5276 18.7038 18.3477 18.9492 18.2441 19.2001H31.8878C32.2476 19.1947 32.6346 19.1511 32.7436 18.9383" fill="#00A664"/>
<path d="M35.7527 20.9565C36.0035 20.771 36.0907 20.5256 36.0798 20.0947C36.0144 18.2674 32.8365 13.3638 25.6358 13.3638C18.4352 13.3638 16.1676 17.3947 15.5571 18.6329C15.5571 18.6329 15.4044 18.9056 15.2845 19.211H16.0913C16.1621 19.0365 16.2275 18.9001 16.3311 18.7147C16.898 17.6729 19.4926 14.0783 25.6358 14.0783C32.7983 14.0783 35.3167 18.9383 35.3167 19.9856C35.3167 20.1547 35.2676 20.231 35.2131 20.2801C35.0114 20.471 34.7388 20.5638 32.9509 20.5638H1.35742V21.2729H32.9509C35.2676 21.2729 35.5347 21.1201 35.7582 20.9565" fill="#00A664"/>
<path d="M34.6512 25.0418L34.5749 25.14C31.7841 28.62 25.9625 28.5491 25.3029 28.5272C20.3153 28.4454 16.8867 25.8927 15.6875 23.46H16.4997C17.6498 25.4672 20.5443 27.6927 25.3247 27.8127C25.5482 27.8236 30.8247 28.0363 33.6919 25.0363H34.6458L34.6512 25.0418Z" fill="#00A664"/>
<path d="M5.33182 36.7037C5.62078 36.9928 5.76798 37.3473 5.76798 37.7564C5.76798 38.1655 5.62078 38.5255 5.33182 38.8201C5.04286 39.1146 4.69393 39.2564 4.27957 39.2564C3.86521 39.2564 3.51628 39.1092 3.22732 38.8201C2.93837 38.5255 2.79661 38.171 2.79661 37.7564C2.79661 37.3419 2.93837 36.9928 3.22732 36.7037C3.51628 36.4092 3.87067 36.2619 4.27957 36.2619C4.68848 36.2619 5.04286 36.4092 5.33182 36.7037ZM5.50628 36.5346C5.16826 36.1964 4.75935 36.0273 4.27957 36.0273C3.79979 36.0273 3.39634 36.1964 3.05831 36.5346C2.72028 36.8728 2.55127 37.2819 2.55127 37.7564C2.55127 38.231 2.72028 38.6455 3.05286 38.9837C3.39089 39.3219 3.79434 39.491 4.27412 39.491C4.7539 39.491 5.1628 39.3219 5.50083 38.9837C5.83886 38.6455 6.00787 38.231 6.00787 37.7564C6.00787 37.2819 5.83886 36.8728 5.50083 36.5346M4.53037 37.6746C4.45949 37.7019 4.3559 37.7183 4.21415 37.7183H3.91428V37.031H4.19779C4.38316 37.031 4.51946 37.0528 4.60124 37.1019C4.68302 37.151 4.72664 37.2437 4.72664 37.3801C4.72664 37.5273 4.66122 37.6255 4.53037 37.6801M3.57626 38.7055H3.90883V37.9528H4.17053C4.345 37.9528 4.47039 37.9746 4.54127 38.0128C4.66121 38.0837 4.72119 38.231 4.72119 38.4492V38.6619C4.72119 38.6619 4.73209 38.6783 4.73209 38.6837C4.73209 38.6892 4.73209 38.6946 4.73209 38.7001H5.04286L5.03195 38.6783C5.03195 38.6783 5.0156 38.6292 5.0156 38.5801C5.0156 38.531 5.0156 38.4819 5.0156 38.4383V38.3019C5.0156 38.2037 4.98289 38.1055 4.91201 38.0073C4.84113 37.9037 4.73209 37.8437 4.58489 37.8219C4.70483 37.8001 4.79206 37.7728 4.86294 37.7292C4.98834 37.6473 5.04831 37.5219 5.04831 37.3528C5.04831 37.1128 4.95017 36.9546 4.7539 36.8728C4.64486 36.8292 4.47039 36.8073 4.23595 36.8073H3.5708V38.7055H3.57626Z" fill="white"/>
<path d="M159.876 34.6309H155.88V35.7654H159.876V34.6309Z" fill="white"/>
<path d="M165.632 37.1949H165.583C165.032 37.7949 164.334 38.0567 163.299 38.0567C161.86 38.0567 160.47 37.5113 160.47 36.4585C160.47 34.7295 163.206 34.604 165.147 34.604H165.632V34.4622C165.632 33.8076 164.912 33.464 163.877 33.464C163.064 33.464 162.503 33.6876 161.985 34.0204L160.966 33.3222C161.822 32.7222 162.857 32.4658 164.089 32.4658C167.403 32.4658 167.403 34.1076 167.403 34.8604V37.8985H165.632V37.1895V37.1949ZM165.517 35.5422H165.114C164.046 35.5422 162.405 35.5967 162.405 36.3658C162.405 36.8513 163.13 37.064 163.762 37.064C165.087 37.064 165.517 36.5895 165.517 35.8422V35.5422Z" fill="white"/>
<path d="M185.751 37.1949H185.702C185.151 37.7949 184.454 38.0567 183.418 38.0567C181.979 38.0567 180.589 37.5113 180.589 36.4585C180.589 34.7295 183.325 34.604 185.266 34.604H185.751V34.4622C185.751 33.8076 185.031 33.464 184.001 33.464C183.194 33.464 182.628 33.6876 182.11 34.0204L181.09 33.3222C181.946 32.7222 182.982 32.4658 184.214 32.4658C187.528 32.4658 187.528 34.1076 187.528 34.8604V37.8985H185.756V37.1895L185.751 37.1949ZM185.636 35.5422H185.233C184.165 35.5422 182.529 35.5967 182.529 36.3658C182.529 36.8513 183.26 37.064 183.887 37.064C185.217 37.064 185.636 36.5895 185.636 35.8422V35.5422Z" fill="white"/>
<path d="M172.304 34.6309H168.308V35.7654H172.304V34.6309Z" fill="white"/>
<path d="M178.78 34.2002C178.327 33.8784 177.826 33.6657 177.308 33.6657C175.885 33.6657 175.029 34.4293 175.029 35.2638C175.029 36.0984 175.885 36.862 177.308 36.862C177.907 36.862 178.453 36.682 178.812 36.3657L180.11 37.3202C179.314 37.8602 177.989 38.062 177.313 38.062C174.969 38.062 173.094 36.9438 173.094 35.2693C173.094 33.5947 174.969 32.4766 177.313 32.4766C178.3 32.4766 179.385 32.722 180.126 33.2893L178.785 34.2111L178.78 34.2002Z" fill="white"/>
<path d="M147.671 37.8981V34.7617C147.671 34.3854 147.546 34.1072 147.3 33.889C146.951 33.5999 146.434 33.5399 146.058 33.5399C144.804 33.5399 144.444 34.129 144.444 35.149V37.8981H142.563V32.5417H144.444V33.1472C144.946 32.689 145.643 32.3999 146.657 32.3999C147.606 32.3999 148.412 32.6454 148.914 33.0654C149.344 33.4308 149.552 33.8999 149.552 34.4726V37.8926H147.671" fill="white"/>
<path d="M150.042 33.6272V32.5145H151.617V31.0581H153.503V32.5145H155.487V33.6272H153.503V36.0927C153.503 36.6163 153.727 36.9436 154.572 36.9436C154.904 36.9436 155.248 36.8999 155.487 36.7799V37.8872C155.09 38.0181 154.539 38.0617 154.097 38.0617C152.075 38.0617 151.623 37.4399 151.623 36.2072V33.6327H150.047L150.042 33.6272Z" fill="white"/>
<path d="M133.281 32.4821C133.281 32.4821 132.927 32.4058 132.573 32.4058C131.728 32.4058 130.861 32.9403 130.386 33.3876V32.5476H128.505V37.9039H130.386V35.2258C130.386 34.1785 131.068 33.6767 132.447 33.6767C132.627 33.6767 132.851 33.7039 133.129 33.7421L133.281 33.7803V32.4821Z" fill="white"/>
<path d="M193.585 32.4821C193.585 32.4821 193.225 32.4058 192.876 32.4058C192.031 32.4058 191.164 32.9403 190.69 33.3876V32.5476H188.809V37.9039H190.69V35.2258C190.69 34.1785 191.371 33.6767 192.75 33.6767C192.93 33.6767 193.154 33.7039 193.432 33.7421L193.585 33.7803V32.4821Z" fill="white"/>
<path d="M139.598 36.3928C139.015 36.7419 138.628 36.8783 137.87 36.8946C136.987 36.911 136.197 36.6601 135.766 36.2455C135.603 36.0819 135.505 35.8964 135.466 35.711H141.206C141.506 35.7055 141.664 35.5801 141.664 35.2092C141.653 34.5764 141.364 33.9164 140.868 33.431C140.209 32.7819 139.009 32.3892 137.69 32.3892C136.371 32.3892 135.134 32.8528 134.403 33.5728C133.924 34.0473 133.662 34.6146 133.662 35.2255C133.662 35.8364 133.924 36.4582 134.403 36.9273C135.118 37.6255 136.344 38.0455 137.734 38.0455C138.344 38.0455 139.102 37.9637 139.68 37.7619C139.942 37.6692 140.187 37.5601 140.427 37.4182C140.667 37.2764 140.885 37.1073 141.075 36.9055C141.195 36.7801 141.299 36.6437 141.381 36.4855C141.441 36.3601 141.223 36.3873 141.086 36.3873H139.598H139.587M139.625 34.6746H135.346C135.499 34.271 136.344 33.5128 137.652 33.4964C138.966 33.4801 139.604 34.031 139.876 34.4237C139.996 34.6419 139.794 34.6746 139.625 34.6746Z" fill="white"/>
</g>
</g>
</g>
<defs>
<clipPath id="clip0_1118_623">
<rect width="198.959" height="42" fill="white"/>
</clipPath>
</defs>
</svg>
